<svg xmlns="http://www.w3.org/2000/svg" xmlns:svg="http://www.w3.org/2000/svg" id="svg18962" width="246.402" height="245.803" version="1.1" viewBox="0 0 65.194 65.035"><g id="layer1" transform="translate(-216.66891,-68.532579)"><g id="g18909" transform="translate(-67.001148,-28.353959)"><g id="g19154"><path id="path886" style="fill:#fff;fill-opacity:1;stroke-width:1.34237;stroke-linecap:round;stroke-linejoin:round;stop-color:#000" d="m 306.22655,157.91924 c -0.43901,0.11763 -14.31152,-3.59951 -14.6329,-3.92088 -0.32132,-0.32133 -4.03845,-14.19387 -3.92086,-14.63286 0.11764,-0.439 10.27301,-10.59439 10.71203,-10.71203 0.43896,-0.11762 14.31146,3.59952 14.63284,3.9209 0.32138,0.32137 4.0385,14.19385 3.92086,14.63285 -0.11763,0.43901 -10.273,10.5944 -10.71197,10.71202 z"/><path id="path888" style="fill:#fff;fill-opacity:1;stroke-width:1.34237;stroke-linecap:round;stroke-linejoin:round;stop-color:#000" d="m 313.71363,130.15504 c -0.43901,0.11763 -14.31152,-3.59951 -14.6329,-3.92088 -0.32131,-0.32134 -4.03845,-14.19387 -3.92086,-14.63286 0.11764,-0.439 10.27301,-10.59439 10.71203,-10.71203 0.43896,-0.11762 14.31146,3.59952 14.63284,3.92089 0.32138,0.32138 4.0385,14.19386 3.92086,14.63286 -0.11763,0.43901 -10.273,10.5944 -10.71197,10.71202 z"/><path id="path890" style="fill:#0461a4;fill-opacity:1;stroke-width:1.34237;stroke-linecap:round;stroke-linejoin:round;stop-color:#000" d="m 334.097,150.40659 c -0.43901,0.11764 -14.31152,-3.5995 -14.6329,-3.92087 -0.32131,-0.32134 -4.03845,-14.19387 -3.92086,-14.63286 0.11764,-0.43901 10.27301,-10.5944 10.71203,-10.71203 0.43896,-0.11762 14.31146,3.59952 14.63284,3.92089 0.32138,0.32137 4.0385,14.19385 3.92086,14.63286 -0.11763,0.439 -10.273,10.59439 -10.71197,10.71201 z"/><path id="path904" style="fill:#90cffc;fill-opacity:1;stroke-width:1.34237;stroke-linecap:round;stroke-linejoin:round;stop-color:#000" d="m 313.07264,132.67995 c -0.43902,0.11765 -10.59436,10.27301 -10.712,10.71201 -0.11297,0.42177 3.31187,13.23679 3.86591,14.52728 0.0201,7.5e-4 0.0432,0.002 0.0522,0 0.43897,-0.11762 10.59437,-10.273 10.712,-10.71201 0.11303,-0.42177 -3.31181,-13.23675 -3.8659,-14.52728 -0.0198,-7.2e-4 -0.0433,-0.002 -0.0522,0 z"/><path id="path1059" style="fill:#90cffc;fill-opacity:1;stroke-width:1.34237;stroke-linecap:round;stroke-linejoin:round;stop-color:#000" d="m 320.55972,104.91575 c -0.43902,0.11765 -10.59436,10.27301 -10.712,10.71201 -0.11297,0.42177 3.31187,13.23679 3.86591,14.52728 0.0201,7.5e-4 0.0432,0.002 0.0522,0 0.43897,-0.11762 10.59437,-10.273 10.712,-10.71201 0.11303,-0.42177 -3.31181,-13.23675 -3.8659,-14.52728 -0.0198,-7.2e-4 -0.0433,-0.002 -0.0522,0 z"/><path id="path1061" style="fill:#045995;fill-opacity:1;stroke-width:1.34237;stroke-linecap:round;stroke-linejoin:round;stop-color:#000" d="m 340.94309,125.1673 c -0.43902,0.11765 -10.59436,10.27301 -10.712,10.71201 -0.11297,0.42177 3.31187,13.23679 3.86591,14.52728 0.0201,7.5e-4 0.0432,0.002 0.0522,0 0.43897,-0.11762 10.59437,-10.273 10.712,-10.71201 0.11303,-0.42177 -3.31181,-13.23675 -3.8659,-14.52728 -0.0198,-7.2e-4 -0.0433,-0.002 -0.0522,0 z"/></g></g></g></svg>